<svg xmlns="http://www.w3.org/2000/svg" viewBox="0 0 37.62 50.65"><defs><style>.cls-1{fill:#fff;}</style></defs><g id="graphics"><path class="cls-1" d="M61.23,43V16a.53.53,0,0,0-1-.31l-3,4.14a5.18,5.18,0,0,0-1,3V46.57c1.19-.78,2.44-1.65,3.71-2.62C60.42,43.64,60.83,43.33,61.23,43Z" transform="translate(-41.73 -15.44)"/><path class="cls-1" d="M78.88,28.87c-1.24-1.65-6-1.78-10.85,1.37V23.75A3.67,3.67,0,0,0,66.78,21l-2.42-2.11a.75.75,0,0,0-1.25.57v22A50.76,50.76,0,0,0,68,36.76l0,0V32.19c2.48-1.42,4.12-1.07,4.59-.44,1.41,1.86-3.68,8.07-11.35,13.86s-15,9-16.45,7.12c-.79-1,1.42-4.92,4.67-8.1v5.66a38.68,38.68,0,0,0,4.93-2.55V25.43a.54.54,0,0,0-1-.31l-3,4.15a5.14,5.14,0,0,0-1,3V42.73c-5.34,5.43-8.91,12-7.42,13.93,1.06,1.4,3.79,1.34,7.42.12v1.77a3.65,3.65,0,0,0,1.26,2.76l2.42,2.12a.75.75,0,0,0,1.25-.57V54.68c.62-.3,1.24-.64,1.88-1V65.55a.54.54,0,0,0,1,.32l3-4.15a5.18,5.18,0,0,0,1-3v-8c.62-.42,1.25-.86,1.88-1.31v7a.53.53,0,0,0,1,.31l3-4.14a5.2,5.2,0,0,0,1-3V45.51C76.16,38.62,80.9,31.55,78.88,28.87Z" transform="translate(-41.73 -15.44)"/></g></svg>